<svg xmlns="http://www.w3.org/2000/svg" version="1.1" xmlns:xlink="http://www.w3.org/1999/xlink" xmlns:svgjs="http://svgjs.dev/svgjs" width="1500" height="935" viewBox="0 0 1500 935"><g transform="matrix(1,0,0,1,-0.9090909090909918,0.3785425101214628)"><svg viewBox="0 0 396 247" data-background-color="#ffffff" preserveAspectRatio="xMidYMid meet" height="935" width="1500" xmlns="http://www.w3.org/2000/svg" xmlns:xlink="http://www.w3.org/1999/xlink"><g id="tight-bounds" transform="matrix(1,0,0,1,0.2400000000000091,-0.09999999999999432)"><svg viewBox="0 0 395.52 247.2" height="247.2" width="395.52"><g><svg></svg></g><g><svg viewBox="0 0 395.52 247.2" height="247.2" width="395.52"><mask id="469f3ec1-d9a0-4e0d-b6fc-7a995f49b1d7"><rect width="640" height="400" fill="white"></rect><g transform="matrix(1,0,0,1,140.64959709409965,37.08)"><svg viewBox="0 0 114.22080581180066 173.04" height="173.04" width="114.22080581180066"><g><svg viewBox="0 0 114.22080581180066 173.04" height="173.04" width="114.22080581180066"><g><svg viewBox="0 0 165.10540885263157 250.12815961860156" height="173.04" width="114.22080581180066"><g><svg viewBox="0 0 165.10540885263157 250.12815961860156" height="250.12815961860156" width="165.10540885263157"><g id="SvgjsG1647"><svg viewBox="0 0 165.10540885263157 250.12815961860156" height="250.12815961860156" width="165.10540885263157" id="SvgjsSvg1646"><g><svg viewBox="0 0 165.10540885263157 171.9706128" height="171.9706128" width="165.10540885263157"><g transform="matrix(1,0,0,1,0,0)"><svg width="165.10540885263157" viewBox="-2.44 -42.87 45.04 46.87" height="171.9706128" data-palette-color="#915eff"><path d="M24.95 0L1.56 0 1.56-8.42 5.47-8.42 5.47-30.44 1.56-30.44 1.56-38.87 22.53-38.87Q30.49-38.87 34.55-35.78 38.6-32.69 38.6-26.54L38.6-26.54Q38.6-20.58 34.57-17.52 30.54-14.45 22.78-14.45L22.78-14.45 17.87-14.45 17.87-8.42 24.95-8.42 24.95 0ZM21.12-30.69L21.12-30.69 17.87-30.69 17.87-21.9 20.87-21.9Q23.36-21.9 24.61-22.95 25.85-24 25.85-26.29L25.85-26.29Q25.85-28.61 24.65-29.65 23.44-30.69 21.12-30.69Z" opacity="1" transform="matrix(1,0,0,1,0,0)" fill="black" class="wordmark-text-0" id="SvgjsPath1645" stroke-width="7" stroke="black" stroke-linejoin="round"></path></svg></g></svg></g><g transform="matrix(1,0,0,1,3.5,206.37288133639578)"><svg viewBox="0 0 158.10540885263157 43.75527828220577" height="43.75527828220577" width="158.10540885263157"><g transform="matrix(1,0,0,1,0,0)"><svg width="158.10540885263157" viewBox="-2.44 -43.38 204.57 57.34" height="43.75527828220577" data-palette-color="#915eff"><path d="M24.95 0L1.56 0 1.56-8.42 5.47-8.42 5.47-30.44 1.56-30.44 1.56-38.87 22.53-38.87Q30.49-38.87 34.55-35.78 38.6-32.69 38.6-26.54L38.6-26.54Q38.6-20.58 34.57-17.52 30.54-14.45 22.78-14.45L22.78-14.45 17.87-14.45 17.87-8.42 24.95-8.42 24.95 0ZM21.12-30.69L21.12-30.69 17.87-30.69 17.87-21.9 20.87-21.9Q23.36-21.9 24.61-22.95 25.85-24 25.85-26.29L25.85-26.29Q25.85-28.61 24.65-29.65 23.44-30.69 21.12-30.69ZM48.12 0.44L48.12 0.44Q45.6 0.44 43.64-0.57 41.67-1.59 40.56-3.37 39.45-5.15 39.45-7.47L39.45-7.47Q39.45-11.08 42.23-13.23 45.02-15.38 49.66-15.38L49.66-15.38Q51.27-15.38 52.73-15.19 54.2-14.99 55.71-14.53L55.71-14.53 55.71-15.06Q55.71-17.29 54.36-18.29 53-19.29 50.02-19.29L50.02-19.29Q47.87-19.29 45.68-18.73 43.48-18.16 41.67-17.16L41.67-17.16 41.01-17.46 41.01-24.58Q43.58-25.59 46.84-26.1 50.1-26.61 53.39-26.61L53.39-26.61Q60.69-26.61 64.06-24.17 67.43-21.73 67.43-16.33L67.43-16.33 67.43-7.32 70.6-7.32 70.6 0 57.27 0 56.08-3.83Q54.93-1.83 52.82-0.7 50.71 0.44 48.12 0.44ZM53.22-5.81L53.22-5.81Q53.88-5.81 54.6-6.04 55.32-6.27 55.71-6.67L55.71-6.67 55.71-10.74Q55.1-11.01 54.48-11.11 53.85-11.21 53.32-11.21L53.32-11.21Q52.07-11.21 51.23-10.47 50.39-9.74 50.39-8.52L50.39-8.52Q50.39-7.28 51.17-6.54 51.95-5.81 53.22-5.81ZM91.28 0L73.82 0 73.82-7.32 77.36-7.32 77.36-18.53 73.82-18.53 73.82-25.2 88.84-26.64 88.84-23.32Q90.35-24.9 92.62-25.77 94.89-26.64 97.5-26.64L97.5-26.64Q101.92-26.64 103.99-24.13 106.05-21.63 106.05-16.6L106.05-16.6 106.05-7.32 109.47-7.32 109.47 0 94.33 0 94.33-16.6Q94.33-18.02 93.72-18.66 93.11-19.31 92.11-19.31L92.11-19.31Q91.28-19.31 90.46-18.82 89.64-18.33 89.08-17.48L89.08-17.48 89.08-7.32 91.28-7.32 91.28 0ZM126.9 0L111.64 0 111.64-7.32 115.18-7.32 115.18-29.83 111.64-29.83 111.64-36.5 126.9-38.09 126.9-13.82 132.88-18.85 129.12-18.85 129.12-26.17 145.62-26.17 145.62-18.85 140.98-18.85 136.74-15.28 142.47-7.32 146.14-7.32 146.14 0 133.73 0 126.9-9.69 126.9 0ZM157.05 0.44L157.05 0.44Q154.53 0.44 152.57-0.57 150.6-1.59 149.49-3.37 148.38-5.15 148.38-7.47L148.38-7.47Q148.38-11.08 151.16-13.23 153.95-15.38 158.58-15.38L158.58-15.38Q160.2-15.38 161.66-15.19 163.12-14.99 164.64-14.53L164.64-14.53 164.64-15.06Q164.64-17.29 163.28-18.29 161.93-19.29 158.95-19.29L158.95-19.29Q156.8-19.29 154.6-18.73 152.41-18.16 150.6-17.16L150.6-17.16 149.94-17.46 149.94-24.58Q152.5-25.59 155.76-26.1 159.02-26.61 162.32-26.61L162.32-26.61Q169.62-26.61 172.99-24.17 176.36-21.73 176.36-16.33L176.36-16.33 176.36-7.32 179.53-7.32 179.53 0 166.2 0 165-3.83Q163.86-1.83 161.75-0.7 159.63 0.44 157.05 0.44ZM162.15-5.81L162.15-5.81Q162.81-5.81 163.53-6.04 164.25-6.27 164.64-6.67L164.64-6.67 164.64-10.74Q164.03-11.01 163.41-11.11 162.78-11.21 162.25-11.21L162.25-11.21Q161-11.21 160.16-10.47 159.32-9.74 159.32-8.52L159.32-8.52Q159.32-7.28 160.1-6.54 160.88-5.81 162.15-5.81ZM181.34 9.96L181.34 9.96 181.34 2.64Q183.58 2.64 184.41 1.87 185.24 1.1 185.24-0.98L185.24-0.98 185.24-18.53 181.46-18.53 181.46-25.2 196.96-26.64 196.96-2.47Q196.96 2.05 195.42 4.79 193.88 7.52 190.45 8.74 187.02 9.96 181.34 9.96ZM191.1-28.27L191.1-28.27Q187.9-28.27 185.99-29.81 184.07-31.35 184.07-33.89L184.07-33.89Q184.07-36.43 185.97-37.9 187.88-39.38 191.13-39.38L191.13-39.38Q194.45-39.38 196.29-37.94 198.13-36.5 198.13-33.89L198.13-33.89Q198.13-31.3 196.24-29.79 194.35-28.27 191.1-28.27Z" opacity="1" transform="matrix(1,0,0,1,0,0)" fill="black" class="slogan-text-1" id="SvgjsPath1644" stroke-width="7" stroke="black" stroke-linejoin="round"></path></svg></g></svg></g></svg></g></svg></g></svg></g></svg></g></svg></g></mask><g transform="matrix(1,0,0,1,140.64959709409965,37.08)"><svg viewBox="0 0 114.22080581180066 173.04" height="173.04" width="114.22080581180066"><g><svg viewBox="0 0 114.22080581180066 173.04" height="173.04" width="114.22080581180066"><g><svg viewBox="0 0 165.10540885263157 250.12815961860156" height="173.04" width="114.22080581180066"><g><svg viewBox="0 0 165.10540885263157 250.12815961860156" height="250.12815961860156" width="165.10540885263157"><g id="textblocktransform"><svg viewBox="0 0 165.10540885263157 250.12815961860156" height="250.12815961860156" width="165.10540885263157" id="textblock"><g><svg viewBox="0 0 165.10540885263157 171.9706128" height="171.9706128" width="165.10540885263157"><g transform="matrix(1,0,0,1,0,0)"><svg width="165.10540885263157" viewBox="-2.44 -42.87 45.04 46.87" height="171.9706128" data-palette-color="#915eff"><path d="M24.95 0L1.56 0 1.56-8.42 5.47-8.42 5.47-30.44 1.56-30.44 1.56-38.87 22.53-38.87Q30.49-38.87 34.55-35.78 38.6-32.69 38.6-26.54L38.6-26.54Q38.6-20.58 34.57-17.52 30.54-14.45 22.78-14.45L22.78-14.45 17.87-14.45 17.87-8.42 24.95-8.42 24.95 0ZM21.12-30.69L21.12-30.69 17.87-30.69 17.87-21.9 20.87-21.9Q23.36-21.9 24.61-22.95 25.85-24 25.85-26.29L25.85-26.29Q25.85-28.61 24.65-29.65 23.44-30.69 21.12-30.69Z" opacity="1" transform="matrix(1,0,0,1,0,0)" fill="#915eff" class="wordmark-text-0" data-fill-palette-color="primary" id="text-0"></path></svg></g></svg></g><g transform="matrix(1,0,0,1,3.5,206.37288133639578)"><svg viewBox="0 0 158.10540885263157 43.75527828220577" height="43.75527828220577" width="158.10540885263157"><g transform="matrix(1,0,0,1,0,0)"><svg width="158.10540885263157" viewBox="-2.44 -43.38 204.57 57.34" height="43.75527828220577" data-palette-color="#915eff"><path d="M24.95 0L1.56 0 1.56-8.42 5.47-8.42 5.47-30.44 1.56-30.44 1.56-38.87 22.53-38.87Q30.49-38.87 34.55-35.78 38.6-32.69 38.6-26.54L38.6-26.54Q38.6-20.58 34.57-17.52 30.54-14.45 22.78-14.45L22.78-14.45 17.87-14.45 17.87-8.42 24.95-8.42 24.95 0ZM21.12-30.69L21.12-30.69 17.87-30.69 17.87-21.9 20.87-21.9Q23.36-21.9 24.61-22.95 25.85-24 25.85-26.29L25.85-26.29Q25.85-28.61 24.65-29.65 23.44-30.69 21.12-30.69ZM48.12 0.44L48.12 0.44Q45.6 0.44 43.64-0.57 41.67-1.59 40.56-3.37 39.45-5.15 39.45-7.47L39.45-7.47Q39.45-11.08 42.23-13.23 45.02-15.38 49.66-15.38L49.66-15.38Q51.27-15.38 52.73-15.19 54.2-14.99 55.71-14.53L55.71-14.53 55.71-15.06Q55.71-17.29 54.36-18.29 53-19.29 50.02-19.29L50.02-19.29Q47.87-19.29 45.68-18.73 43.48-18.16 41.67-17.16L41.67-17.16 41.01-17.46 41.01-24.58Q43.58-25.59 46.84-26.1 50.1-26.61 53.39-26.61L53.39-26.61Q60.69-26.61 64.06-24.17 67.43-21.73 67.43-16.33L67.43-16.33 67.43-7.32 70.6-7.32 70.6 0 57.27 0 56.08-3.83Q54.93-1.83 52.82-0.7 50.71 0.44 48.12 0.44ZM53.22-5.81L53.22-5.81Q53.88-5.81 54.6-6.04 55.32-6.27 55.71-6.67L55.71-6.67 55.71-10.74Q55.1-11.01 54.48-11.11 53.85-11.21 53.32-11.21L53.32-11.21Q52.07-11.21 51.23-10.47 50.39-9.74 50.39-8.52L50.39-8.52Q50.39-7.28 51.17-6.54 51.95-5.81 53.22-5.81ZM91.28 0L73.82 0 73.82-7.32 77.36-7.32 77.36-18.53 73.82-18.53 73.82-25.2 88.84-26.64 88.84-23.32Q90.35-24.9 92.62-25.77 94.89-26.64 97.5-26.64L97.5-26.64Q101.92-26.64 103.99-24.13 106.05-21.63 106.05-16.6L106.05-16.6 106.05-7.32 109.47-7.32 109.47 0 94.33 0 94.33-16.6Q94.33-18.02 93.72-18.66 93.11-19.31 92.11-19.31L92.11-19.31Q91.28-19.31 90.46-18.82 89.64-18.33 89.08-17.48L89.08-17.48 89.08-7.32 91.28-7.32 91.28 0ZM126.9 0L111.64 0 111.64-7.32 115.18-7.32 115.18-29.83 111.64-29.83 111.64-36.5 126.9-38.09 126.9-13.82 132.88-18.85 129.12-18.85 129.12-26.17 145.62-26.17 145.62-18.85 140.98-18.85 136.74-15.28 142.47-7.32 146.14-7.32 146.14 0 133.73 0 126.9-9.69 126.9 0ZM157.05 0.44L157.05 0.44Q154.53 0.44 152.57-0.57 150.6-1.59 149.49-3.37 148.38-5.15 148.38-7.47L148.38-7.47Q148.38-11.08 151.16-13.23 153.95-15.38 158.58-15.38L158.58-15.38Q160.2-15.38 161.66-15.19 163.12-14.99 164.64-14.53L164.64-14.53 164.64-15.06Q164.64-17.29 163.28-18.29 161.93-19.29 158.95-19.29L158.95-19.29Q156.8-19.29 154.6-18.73 152.41-18.16 150.6-17.16L150.6-17.16 149.94-17.46 149.94-24.58Q152.5-25.59 155.76-26.1 159.02-26.61 162.32-26.61L162.32-26.61Q169.62-26.61 172.99-24.17 176.36-21.73 176.36-16.33L176.36-16.33 176.36-7.32 179.53-7.32 179.53 0 166.2 0 165-3.83Q163.86-1.83 161.75-0.7 159.63 0.44 157.05 0.44ZM162.15-5.81L162.15-5.81Q162.81-5.81 163.53-6.04 164.25-6.27 164.64-6.67L164.64-6.67 164.64-10.74Q164.03-11.01 163.41-11.11 162.78-11.21 162.25-11.21L162.25-11.21Q161-11.21 160.16-10.47 159.32-9.74 159.32-8.52L159.32-8.52Q159.32-7.28 160.1-6.54 160.88-5.81 162.15-5.81ZM181.34 9.96L181.34 9.96 181.34 2.64Q183.58 2.64 184.41 1.87 185.24 1.1 185.24-0.98L185.24-0.98 185.24-18.53 181.46-18.53 181.46-25.2 196.96-26.64 196.96-2.47Q196.96 2.05 195.42 4.79 193.88 7.52 190.45 8.74 187.02 9.96 181.34 9.96ZM191.1-28.27L191.1-28.27Q187.9-28.27 185.99-29.81 184.07-31.35 184.07-33.89L184.07-33.89Q184.07-36.43 185.97-37.9 187.88-39.38 191.13-39.38L191.13-39.38Q194.45-39.38 196.29-37.94 198.13-36.5 198.13-33.89L198.13-33.89Q198.13-31.3 196.24-29.79 194.35-28.27 191.1-28.27Z" opacity="1" transform="matrix(1,0,0,1,0,0)" fill="#915eff" class="slogan-text-1" data-fill-palette-color="secondary" id="text-1"></path></svg></g></svg></g></svg></g></svg></g></svg></g></svg></g></svg></g><g mask="url(#469f3ec1-d9a0-4e0d-b6fc-7a995f49b1d7)"><g transform="matrix(3.405324367294694, 0, 0, 3.405324367294694, 78.61141401391265, 1)"><svg xmlns="http://www.w3.org/2000/svg" xmlns:xlink="http://www.w3.org/1999/xlink" version="1.1" x="0" y="0" viewBox="15.010750000000002 13.998 69.97781892991478 72.00488809669407" enable-background="new 0 0 100 100" xml:space="preserve" height="72.00488809669407" width="69.97781892991478" class="icon-none" data-fill-palette-color="accent" id="none"><g fill="#915eff" data-fill-palette-color="accent"><path fill="#915eff" d="M43.034 13.998c-7.182 0-14.335 2.776-19.828 8.301-10.927 11.078-10.927 29.04 0 40.117 10.562 10.652 27.46 11.021 38.472 1.104l21.912 22.184c0.281 0.368 0.873 0.396 1.183 0.085s0.281-0.906-0.057-1.189L62.834 62.443c0.028 0 0.028-0.028 0.056-0.028 10.928-11.077 10.899-29.039-0.027-40.117C57.398 16.774 50.216 13.998 43.034 13.998L43.034 13.998zM43.034 15.584c6.759 0 13.547 2.606 18.701 7.848 10.336 10.455 10.336 27.368 0 37.821-10.336 10.455-27.066 10.455-37.402 0-10.336-10.454-10.336-27.367 0-37.821C29.487 18.19 36.275 15.584 43.034 15.584L43.034 15.584zM42.95 23.063c-0.169 0.028-0.338 0.113-0.451 0.227l-5.436 5.241c-0.338 0.255-0.395 0.85-0.084 1.19 0.31 0.312 0.901 0.283 1.183-0.057l4.873-4.674 4.9 4.674c0.282 0.34 0.873 0.368 1.183 0.057 0.31-0.34 0.254-0.935-0.084-1.19l-5.436-5.241c-0.169-0.142-0.366-0.227-0.591-0.227C42.978 23.063 42.95 23.063 42.95 23.063L42.95 23.063zM29.769 36.067c-0.169 0.028-0.338 0.142-0.479 0.283l-5.182 5.44c-0.282 0.283-0.282 0.793 0 1.105l5.182 5.468c0.31 0.312 0.845 0.312 1.155 0 0.282-0.283 0.282-0.822 0-1.133l-4.647-4.901 4.647-4.873c0.451-0.453 0.056-1.417-0.591-1.388C29.825 36.067 29.797 36.067 29.769 36.067L29.769 36.067zM56.074 36.067c-0.592 0.085-0.873 0.963-0.45 1.388l4.675 4.873-4.675 4.901c-0.282 0.312-0.282 0.85 0.028 1.133 0.281 0.312 0.816 0.312 1.126 0l5.183-5.468c0.281-0.312 0.281-0.822 0-1.105l-5.183-5.44c-0.169-0.17-0.395-0.283-0.619-0.283C56.131 36.067 56.103 36.067 56.074 36.067L56.074 36.067zM48.385 54.737c-0.169 0.028-0.338 0.142-0.451 0.283l-4.9 4.675-4.873-4.675c-0.169-0.198-0.422-0.283-0.676-0.227-0.563 0.085-0.845 0.963-0.422 1.359l5.436 5.213c0.281 0.284 0.789 0.284 1.098 0l5.436-5.213c0.282-0.198 0.395-0.651 0.253-0.963C49.117 54.851 48.723 54.652 48.385 54.737L48.385 54.737z" data-fill-palette-color="accent"></path></g></svg></g></g></svg></g><defs></defs></svg><rect width="395.52" height="247.2" fill="none" stroke="none" visibility="hidden"></rect></g></svg></g></svg>